<svg width="512" height="512" viewBox="0 0 512 512" fill="none" xmlns="http://www.w3.org/2000/svg">
<path d="M188.817 308.02H94.8438V418.138H188.817V308.02Z" fill="#0464FA"/>
<path d="M496.807 10.8879H15.193C6.806 10.8879 0 17.6949 0 26.0809V485.919C0 494.305 6.806 501.112 15.193 501.112H496.807C505.193 501.112 512 494.306 512 485.919V26.0809C512 17.6949 505.194 10.8879 496.807 10.8879ZM360.365 101.043C360.365 80.0569 378.921 72.6019 394.812 72.6019C401.254 72.6019 422.26 73.6049 422.26 86.4379C422.26 91.0059 419.14 99.5339 411.615 99.5339C405.963 99.5339 404.241 94.8749 394.812 94.8749C389.201 94.8749 385.575 96.5769 385.575 99.1999C385.575 107.586 424.469 107.971 424.469 140.049C424.469 183.187 358.157 173.838 358.157 151.342C358.157 146.024 362.695 137.993 369.542 137.993C372.965 137.993 375.629 140.049 378.202 142.024C381.423 144.506 384.755 147.078 390.397 147.078C391.298 147.078 399.26 146.936 399.26 142.014C399.259 130.72 360.365 131.155 360.365 101.043ZM259.717 79.1039L275.102 131.003L282.182 100.719C284.36 90.8939 304.303 90.8639 306.501 100.749L313.581 131.003L328.966 79.0739C332.237 67.6079 356.88 75.0329 353.042 86.5389L328.632 161.359C324.56 173.23 300.292 172.217 297.75 161.096L294.337 145.518L290.924 161.065C288.321 172.49 263.688 172.946 260.032 161.328L235.632 86.5279C231.803 75.0219 256.425 67.5879 259.717 79.1039ZM167.274 82.2639C167.274 77.0979 172.065 73.3409 178.659 73.3409H222.333C234.204 73.3409 233.971 96.0999 222.333 96.0999H192.494V110.756H207.849C212.954 110.756 216.661 115.182 216.661 121.28C216.661 126.385 213.633 131.56 207.849 131.56H192.494V146.338H222.333C233.981 146.338 234.194 169.097 222.333 169.097H178.659C172.065 169.097 167.274 165.349 167.274 160.174V82.2639ZM83.237 82.2639C83.237 76.9259 88.311 73.3409 95.847 73.3409C104.213 73.3409 107.627 74.8909 112.65 84.5429L126.79 111.515V82.1429C126.79 70.3429 152.01 70.3329 152.01 82.1429V160.174C152.01 165.431 146.824 169.097 139.4 169.097C134.893 169.097 129.302 168.337 126.061 162.362L108.458 130.305V160.174C108.458 172.085 83.238 172.095 83.238 160.174L83.237 82.2639ZM219.213 433.321C219.213 441.718 212.407 448.514 204.02 448.514H79.651C71.265 448.514 64.458 441.718 64.458 433.321V292.828C64.458 284.431 71.264 277.635 79.651 277.635H204.02C212.406 277.635 219.213 284.431 219.213 292.828V433.321ZM422.281 438.78H291.572C283.186 438.78 276.379 431.974 276.379 423.587C276.379 415.19 283.185 408.394 291.572 408.394H422.281C430.667 408.394 437.474 415.19 437.474 423.587C437.474 431.974 430.667 438.78 422.281 438.78ZM422.281 373.299H291.572C283.186 373.299 276.379 366.493 276.379 358.106C276.379 349.719 283.185 342.913 291.572 342.913H422.281C430.667 342.913 437.474 349.719 437.474 358.106C437.474 366.493 430.667 373.299 422.281 373.299ZM422.281 307.818H291.572C283.186 307.818 276.379 301.022 276.379 292.625C276.379 284.239 283.185 277.432 291.572 277.432H422.281C430.667 277.432 437.474 284.238 437.474 292.625C437.474 301.022 430.667 307.818 422.281 307.818ZM422.575 232.897H79.651C71.265 232.897 64.458 226.101 64.458 217.704C64.458 209.318 71.264 202.511 79.651 202.511H422.575C430.961 202.511 437.768 209.317 437.768 217.704C437.768 226.1 430.961 232.897 422.575 232.897Z" fill="#0464FA"/>
</svg>
