<svg width="470" height="468" viewBox="0 0 470 468" fill="none" xmlns="http://www.w3.org/2000/svg">
<path d="M412.503 0.986694H210.593C179.073 0.986694 153.431 26.624 153.431 58.1547V159.669H57.4574C25.9587 159.675 0.332031 185.312 0.332031 216.811V343.744C0.332031 375.243 25.9587 400.885 57.4574 400.885H66.4014V440.416C66.4014 451.152 72.5134 460.507 82.3534 464.789C85.7774 466.283 89.404 467.013 92.9987 467.013C99.6014 467.013 106.119 464.56 111.191 459.856L173.969 400.885H259.425C290.935 400.885 316.567 375.248 316.567 343.744V261.419L358.849 301.029C363.873 305.765 370.401 308.24 377.02 308.24C380.577 308.24 384.172 307.509 387.569 306.043C397.287 301.845 403.569 292.267 403.569 281.669V242.251H412.508C444.023 242.256 469.665 216.613 469.665 185.088V58.1547C469.665 26.6294 444.023 0.986694 412.503 0.986694ZM259.425 372.032H168.263C164.593 372.032 161.057 373.44 158.385 375.947L95.2547 435.259V386.459C95.2547 378.485 88.796 372.032 80.828 372.032H57.4574C41.868 372.032 29.1854 359.355 29.1854 343.744V216.811C29.1854 201.2 41.868 188.523 57.4574 188.523H153.607C155.399 218.448 180.236 242.256 210.593 242.256H287.708V343.744C287.713 359.355 275.02 372.032 259.425 372.032ZM440.812 185.088C440.812 200.699 428.113 213.403 412.503 213.403H389.137C381.169 213.403 374.711 219.856 374.711 227.829V276.379C374.711 276.379 312.204 217.717 312.087 217.605L311.788 217.323L311.751 217.365L311.676 217.296C309.004 214.789 305.473 213.408 301.809 213.408H210.593C194.983 213.408 182.284 200.699 182.284 185.093V185.067H182.391L182.284 58.1654C182.284 42.5547 194.983 29.8507 210.593 29.8507H412.503C428.113 29.8507 440.812 42.56 440.812 58.1654V185.088Z" fill="#0464FA"/>
<path d="M369.251 77.4561H253.849C245.881 77.4561 239.422 83.9094 239.422 91.8827C239.422 99.8561 245.881 106.309 253.849 106.309H369.257C377.225 106.309 383.683 99.8561 383.683 91.8827C383.683 83.9094 377.219 77.4561 369.251 77.4561Z" fill="#0464FA"/>
<path d="M369.251 135.157H253.849C245.881 135.157 239.422 141.611 239.422 149.584C239.422 157.557 245.881 164.011 253.849 164.011H369.257C377.225 164.011 383.683 157.557 383.683 149.584C383.683 141.611 377.219 135.157 369.251 135.157Z" fill="#0464FA"/>
<path d="M100.878 266.203C99.1496 266.768 97.7043 267.92 96.2643 269.077C93.6669 271.952 91.9336 275.728 91.9336 279.472C91.9336 283.216 93.6616 286.965 96.2643 289.557C99.1496 292.432 102.611 293.899 106.36 293.899C108.376 293.899 110.403 293.307 112.131 292.741C113.864 292.149 115.304 290.992 116.744 289.557C119.342 286.965 121.075 283.216 121.075 279.472C121.075 275.728 119.342 271.947 116.744 269.077C112.707 265.333 106.36 263.893 100.878 266.203Z" fill="#0464FA"/>
<path d="M169.83 266.203C164.347 263.893 158 265.328 153.963 269.077C151.366 271.952 149.926 275.728 149.926 279.472C149.926 283.216 151.366 286.965 153.963 289.557C155.403 290.992 156.848 292.149 158.576 292.741C160.598 293.307 162.326 293.899 164.347 293.899C168.102 293.899 171.563 292.432 174.448 289.557C177.046 286.965 178.779 283.216 178.779 279.472C178.779 275.728 177.046 271.947 174.448 269.077C173.003 267.925 171.563 266.768 169.83 266.203Z" fill="#0464FA"/>
<path d="M227.537 266.203C224.076 264.736 220.033 264.736 216.284 266.203C214.556 266.768 213.111 267.92 211.671 269.077C209.073 271.952 207.34 275.728 207.34 279.472C207.34 283.216 209.068 286.965 211.671 289.557C214.556 292.432 218.017 293.899 221.772 293.899C223.788 293.899 225.809 293.307 227.543 292.741C229.276 292.149 230.716 290.992 232.161 289.557C234.759 286.965 236.199 283.216 236.199 279.472C236.199 275.728 234.753 271.947 232.161 269.077C230.711 267.925 229.271 266.768 227.537 266.203Z" fill="#0464FA"/>
<path d="M77.665 120.736H106.518C114.486 120.736 120.945 114.283 120.945 106.309C120.945 98.336 114.486 91.8827 106.518 91.8827H77.665C69.697 91.8827 63.2383 98.336 63.2383 106.309C63.233 114.283 69.6916 120.736 77.665 120.736Z" fill="#0464FA"/>
<path d="M395.03 351.547H366.177C358.209 351.547 351.75 358 351.75 365.973C351.75 373.947 358.209 380.4 366.177 380.4H395.03C402.998 380.4 409.457 373.947 409.457 365.973C409.457 358 402.998 351.547 395.03 351.547Z" fill="#0464FA"/>
</svg>
