<svg width="60" height="60" viewBox="0 0 60 60" fill="none" xmlns="http://www.w3.org/2000/svg">
<g id="home-page">
<g id="Group">
<path id="Vector" d="M15.2344 16.7578C6.89063 24.1054 0.0468831 30.1875 0.0234456 30.2695C-0.0234294 30.5156 0.656258 31.2187 1.23048 31.5117C1.53516 31.664 2.02735 31.8164 2.3086 31.8515C3.02345 31.9336 4.20704 31.582 5.01563 31.0664C5.37891 30.8203 11.1797 25.9804 17.8945 20.2968C24.5977 14.625 30.1992 9.91402 30.3281 9.83199C30.5274 9.70309 31.6406 10.664 41.9063 19.875C48.1524 25.4882 53.5195 30.2461 53.8242 30.457C54.6914 31.0429 55.7578 31.5 56.6602 31.6523C57.3633 31.7695 57.5742 31.7695 58.1367 31.6054C58.8867 31.3828 59.6367 30.8789 59.8711 30.4218C60.0352 30.1289 60.0234 30.0937 59.6953 29.7773C58.6055 28.7226 30.5742 3.3984 30.4922 3.3984C30.4453 3.3984 23.5781 9.41012 15.2344 16.7578Z" fill="#0464FA"/>
<path id="Vector_2" d="M46.9922 13.1133V16.7344L49.9102 19.207C51.5156 20.5664 52.8633 21.6797 52.8984 21.6797C52.9336 21.6797 52.9688 18.9375 52.9688 15.5859V9.49219H49.9805H46.9922V13.1133Z" fill="#0464FA"/>
<path id="Vector_3" d="M19.1836 22.6523L8.09766 31.9336V43.7227C8.08595 52.0664 8.1211 55.6172 8.21485 55.8867C8.47266 56.625 8.22657 56.6016 16.8164 56.6016H24.6094V50.0625C24.6094 42.8555 24.5859 43.043 25.3477 42.4922C25.6641 42.2578 25.8516 42.2461 29.2734 42.2109C31.7109 42.1875 33.0234 42.2227 33.3516 42.3047C33.9023 42.457 34.4063 42.8789 34.5938 43.3359C34.6875 43.5586 34.7227 45.5742 34.6992 50.1328L34.6641 56.6133L42.4453 56.5781C49.7578 56.543 50.25 56.5312 50.5547 56.332C51.2344 55.875 51.2109 56.3672 51.2109 43.6289V31.9336L41.0039 22.8516C35.3906 17.8594 30.6914 13.6758 30.5391 13.5703C30.2813 13.3711 30.1523 13.4883 19.1836 22.6523Z" fill="#0464FA"/>
</g>
</g>
</svg>
